<?xml version="1.0" encoding="UTF-8"?>
<!-- Generator: visioncortex VTracer 0.6.3 -->
<svg version="1.1" xmlns="http://www.w3.org/2000/svg" width="1280" height="720">
<path d="M0 0 C0.92 -0 1.85 -0 2.8 -0 C5.91 -0.01 9.02 -0.01 12.14 -0 C14.36 -0 16.59 -0.01 18.81 -0.01 C24.87 -0.01 30.92 -0.01 36.98 -0.01 C43.31 -0 49.64 -0.01 55.98 -0.01 C67.3 -0.01 78.62 -0.01 89.94 -0 C100.2 0 110.46 0 120.72 -0 C132.63 -0.01 144.55 -0.01 156.46 -0.01 C162.77 -0.01 169.07 -0.01 175.38 -0.01 C181.31 -0.01 187.25 -0.01 193.18 -0 C195.36 -0 197.53 -0 199.71 -0.01 C202.68 -0.01 205.66 -0 208.63 0 C209.49 -0 210.35 -0 211.24 -0.01 C223.96 0.03 223.96 0.03 227.59 3.61 C228.34 4.69 229.1 5.77 229.88 6.88 C230.74 8.08 231.61 9.27 232.47 10.47 C232.9 11.08 233.33 11.7 233.78 12.33 C235.75 15.08 237.85 17.72 239.94 20.38 C243.87 25.43 247.54 30.63 251.19 35.88 C254.99 41.34 258.91 46.45 263.44 51.33 C269.07 57.54 269.07 57.54 269.07 62.13 C269.73 62.13 270.39 62.13 271.07 62.13 C272.86 64.19 274.54 66.27 276.19 68.44 C276.68 69.07 277.17 69.7 277.67 70.35 C279.14 72.27 280.61 74.2 282.07 76.13 C282.5 76.69 282.92 77.26 283.37 77.84 C290.07 86.72 290.07 86.72 290.07 89.13 C290.73 89.13 291.39 89.13 292.07 89.13 C293.39 90.74 294.62 92.42 295.82 94.13 C296.54 95.14 297.26 96.15 298 97.2 C298.68 98.16 299.36 99.13 300.07 100.13 C301.02 101.42 301.98 102.72 302.94 104 C303.41 104.62 303.87 105.24 304.35 105.88 C305.77 107.73 307.19 109.57 308.63 111.4 C309.08 111.99 309.53 112.57 310 113.17 C310.91 114.33 311.82 115.49 312.73 116.65 C314.67 119.14 316.06 121.1 317.07 124.13 C317.73 124.13 318.39 124.13 319.07 124.13 C319.73 125.78 320.39 127.43 321.07 129.13 C315.32 134.13 315.32 134.13 313.07 134.13 C313.07 134.79 313.07 135.45 313.07 136.13 C311.09 137.12 309.11 138.11 307.07 139.13 C304.09 136.36 302.09 133.64 300.07 130.13 C299.51 129.41 298.95 128.68 298.38 127.94 C297.07 126.13 297.07 126.13 297.07 124.13 C296.41 124.13 295.75 124.13 295.07 124.13 C291.07 119.66 291.07 119.66 291.07 117.13 C290.41 117.13 289.75 117.13 289.07 117.13 C288 115.59 287.02 113.99 286.07 112.38 C282.6 106.75 278.68 101.86 274.4 96.85 C273.63 95.95 272.86 95.05 272.07 94.13 C271.31 93.25 270.55 92.37 269.77 91.46 C268.07 89.13 268.07 89.13 268.07 86.13 C267.41 86.13 266.75 86.13 266.07 86.13 C264.77 84.53 263.56 82.87 262.38 81.19 C259.84 77.61 257.29 74.07 254.57 70.63 C252.01 67.37 249.55 64.05 247.13 60.69 C243.92 56.24 240.54 51.95 237.09 47.68 C234.22 44.06 231.53 40.32 228.83 36.57 C227.7 35 226.54 33.45 225.34 31.93 C224.07 30.13 224.07 30.13 224.07 28.13 C223.41 28.13 222.75 28.13 222.07 28.13 C221.74 27.49 221.41 26.85 221.08 26.19 C219.4 23.03 217.95 21.29 215.07 19.13 C208.39 17.29 201.02 17.99 194.17 18.11 C192.01 18.11 189.85 18.11 187.69 18.1 C181.84 18.1 175.99 18.15 170.14 18.21 C164.02 18.27 157.9 18.28 151.78 18.29 C140.19 18.31 128.61 18.39 117.03 18.48 C103.84 18.58 90.65 18.63 77.46 18.67 C50.33 18.77 23.2 18.93 -3.93 19.13 C-4.23 19.91 -4.53 20.7 -4.84 21.51 C-5.96 24.21 -7.11 25.67 -9.12 27.75 C-12.74 31.72 -15.47 36 -18.29 40.56 C-20.3 43.7 -22.37 46.42 -24.93 49.13 C-25.59 49.13 -26.25 49.13 -26.93 49.13 C-27.22 49.89 -27.51 50.65 -27.81 51.44 C-28.93 54.13 -28.93 54.13 -30.93 57.13 C-31.59 57.13 -32.25 57.13 -32.93 57.13 C-33.05 57.72 -33.17 58.31 -33.29 58.93 C-34.33 62.5 -36.86 65.1 -39.18 67.94 C-40.15 69.13 -41.11 70.33 -42.07 71.52 C-42.55 72.11 -43.02 72.7 -43.51 73.3 C-44.97 75.18 -46.32 77.11 -47.67 79.08 C-48.41 80.08 -49.16 81.09 -49.93 82.13 C-50.59 82.13 -51.25 82.13 -51.93 82.13 C-52.05 82.72 -52.17 83.32 -52.29 83.93 C-53.31 87.41 -55.69 89.96 -57.93 92.75 C-61.23 96.74 -61.23 96.74 -63.93 101.13 C-64.59 101.13 -65.25 101.13 -65.93 101.13 C-66.2 101.69 -66.47 102.26 -66.74 102.84 C-68.01 105.27 -69.45 107.48 -70.99 109.75 C-73.11 112.85 -73.11 112.85 -74.93 116.13 C-75.59 116.13 -76.25 116.13 -76.93 116.13 C-77.2 116.7 -77.47 117.27 -77.74 117.86 C-78.97 120.21 -80.36 122.25 -81.93 124.38 C-82.45 125.08 -82.96 125.79 -83.49 126.52 C-84.21 127.31 -84.21 127.31 -84.93 128.13 C-85.59 128.13 -86.25 128.13 -86.93 128.13 C-87.16 129.01 -87.39 129.9 -87.62 130.81 C-89.1 134.56 -90.96 136.46 -93.93 139.13 C-94.96 138.4 -94.96 138.4 -96.01 137.67 C-96.91 137.03 -97.82 136.4 -98.74 135.75 C-99.64 135.13 -100.53 134.5 -101.45 133.85 C-103.26 132.59 -105.09 131.35 -106.93 130.13 C-106.5 125.18 -103.94 122.19 -100.87 118.5 C-99.86 117.26 -98.86 116.02 -97.86 114.77 C-97.36 114.16 -96.86 113.54 -96.35 112.91 C-92.49 108.07 -88.9 103 -85.4 97.89 C-84.29 96.27 -83.12 94.69 -81.93 93.13 C-81.27 93.13 -80.61 93.13 -79.93 93.13 C-79.66 92.38 -79.4 91.64 -79.12 90.88 C-77.97 88.21 -76.76 86.37 -74.93 84.13 C-74.31 83.35 -73.69 82.58 -73.06 81.78 C-72.36 80.91 -71.65 80.03 -70.93 79.13 C-69.26 76.96 -67.59 74.8 -65.93 72.63 C-63.06 68.88 -60.17 65.15 -57.24 61.44 C-54.92 58.47 -52.75 55.43 -50.62 52.31 C-47.89 48.35 -44.92 44.66 -41.81 41 C-38.6 37.24 -35.78 33.48 -33.29 29.21 C-30.79 25.37 -27.76 21.94 -24.82 18.45 C-22.92 16.28 -22.92 16.28 -21.93 14.13 C-21.27 14.13 -20.61 14.13 -19.93 14.13 C-19.73 13.47 -19.52 12.81 -19.31 12.13 C-17.44 8.05 -14.97 4.44 -11.93 1.13 C-7.95 -0.2 -4.15 -0.01 0 0 Z " fill="#070B0A" transform="translate(532.9314575195313,190.87301635742188)"/>
<path d="M0 0 C3.91 1.3 4.41 2.89 6.5 6.38 C8.47 9.65 10.31 12.32 13 15 C13 15.66 13 16.32 13 17 C13.66 17 14.32 17 15 17 C15.66 18.65 16.32 20.3 17 22 C17.66 22 18.32 22 19 22 C20.26 23.91 20.26 23.91 21.69 26.5 C24.15 30.74 26.81 34.23 30.1 37.84 C33.55 41.77 36.59 46.03 39.7 50.24 C42.14 53.54 44.6 56.83 47.06 60.12 C47.82 61.15 47.82 61.15 48.6 62.19 C52.16 66.94 55.84 71.55 59.67 76.08 C61 78 61 78 61 81 C61.66 81 62.32 81 63 81 C64.29 82.62 65.51 84.3 66.69 86 C69.21 89.57 71.75 92.96 74.69 96.19 C76.9 98.64 78.74 101.04 80.44 103.88 C80.82 104.49 81.2 105.1 81.6 105.74 C82.58 107.31 83.5 108.92 84.39 110.55 C87.24 115 89.37 117.59 94.61 118.9 C99.18 119.35 103.73 119.22 108.31 119.12 C110.05 119.12 111.79 119.12 113.52 119.12 C117.18 119.13 120.83 119.1 124.48 119.06 C129.79 118.99 135.1 119.01 140.41 119.05 C151.29 119.13 162.17 119.12 173.04 119.09 C174.01 119.09 174.98 119.09 175.97 119.08 C185.11 119.06 194.26 119.04 203.4 119 C214.97 118.96 226.55 118.93 238.12 118.94 C246.34 118.94 254.56 118.91 262.78 118.87 C267.67 118.85 272.55 118.84 277.43 118.85 C281.99 118.86 286.55 118.84 291.11 118.8 C292.78 118.79 294.45 118.79 296.12 118.81 C298.4 118.82 300.67 118.8 302.95 118.77 C304.22 118.76 305.49 118.76 306.81 118.76 C310.29 118.29 310.29 118.29 312.32 114.95 C312.87 113.98 313.43 113 314 112 C314.66 112 315.32 112 316 112 C316 111.34 316 110.68 316 110 C316.66 110 317.32 110 318 110 C318 109.34 318 108.68 318 108 C318.66 108 319.32 108 320 108 C320.24 107.14 320.47 106.28 320.72 105.4 C322.16 101.58 324.04 98.86 326.5 95.62 C326.9 95.08 327.31 94.53 327.72 93.97 C328.76 92.61 329.88 91.3 331 90 C331.66 90 332.32 90 333 90 C333.66 88.35 334.32 86.7 335 85 C335.66 85 336.32 85 337 85 C337.32 84 337.32 84 337.65 82.97 C339.44 79.02 341.92 75.86 344.56 72.44 C345.64 71.02 346.73 69.6 347.81 68.18 C348.35 67.48 348.88 66.78 349.44 66.06 C350.89 64.15 352.31 62.22 353.72 60.29 C354.13 59.73 354.54 59.17 354.96 58.59 C356.06 57.09 357.16 55.57 358.26 54.06 C358.83 53.38 359.41 52.7 360 52 C360.66 52 361.32 52 362 52 C362.09 51.44 362.18 50.87 362.28 50.29 C363.19 47.4 364.63 45.7 366.56 43.38 C367.28 42.5 368 41.62 368.74 40.72 C369.48 39.82 370.23 38.93 371 38 C375.51 32.54 379.72 27.29 383 21 C383.66 21 384.32 21 385 21 C385.29 20.4 385.58 19.8 385.88 19.19 C387 17 387 17 389 14 C389.66 14 390.32 14 391 14 C391.27 13.24 391.54 12.47 391.81 11.69 C392.99 9.02 393.99 8.01 396 6 C397.05 4.02 398.05 2.03 399 0 C401.97 1.12 404.33 2.22 407 4 C407 4.66 407 5.32 407 6 C408.18 6.37 408.18 6.37 409.38 6.75 C412.39 8.19 412.72 9.05 414 12 C413.42 12.69 412.84 13.38 412.24 14.09 C408.63 18.44 405.06 22.74 402 27.5 C399.03 32.12 395.57 36.26 392.05 40.47 C390.41 42.49 388.95 44.49 387.56 46.69 C387.05 47.45 386.53 48.21 386 49 C385.34 49 384.68 49 384 49 C383.71 49.76 383.42 50.53 383.12 51.31 C382 54 382 54 380 57 C379.34 57 378.68 57 378 57 C377.75 57.72 377.5 58.44 377.25 59.18 C375.88 62.27 374.22 64.47 372.06 67.06 C369.12 70.62 369.12 70.62 366.37 74.31 C365.69 75.15 365.69 75.15 365 76 C364.34 76 363.68 76 363 76 C362.91 76.55 362.82 77.1 362.73 77.67 C360.67 84.25 354.9 90.11 350.31 95.12 C346.78 99.03 344.36 103.31 342 108 C341.34 108 340.68 108 340 108 C339.73 108.57 339.46 109.14 339.19 109.73 C337.96 112.08 336.57 114.12 335 116.25 C334.48 116.96 333.97 117.66 333.44 118.39 C332.73 119.19 332.73 119.19 332 120 C331.34 120 330.68 120 330 120 C329.74 120.7 329.47 121.39 329.2 122.11 C326.79 127.9 324.4 133.48 319 137 C311.8 139.32 303.81 138.63 296.35 138.54 C294.03 138.55 291.7 138.57 289.38 138.6 C283.08 138.65 276.79 138.62 270.49 138.58 C264.57 138.55 258.64 138.57 252.72 138.58 C240.27 138.61 227.83 138.57 215.38 138.5 C204.71 138.44 194.04 138.44 183.37 138.49 C170.96 138.54 158.55 138.56 146.15 138.52 C139.59 138.5 133.02 138.5 126.46 138.53 C120.29 138.56 114.13 138.53 107.96 138.46 C105.7 138.45 103.43 138.45 101.17 138.47 C83.19 138.63 83.19 138.63 78.84 134.53 C74 128.08 74 128.08 74 124 C73.34 124 72.68 124 72 124 C68 118.59 68 118.59 68 116 C67.34 116 66.68 116 66 116 C61.58 111.18 58.04 105.61 54.49 100.14 C52.56 97.37 50.39 94.89 48.1 92.41 C47 91 47 91 47 89 C46.34 89 45.68 89 45 89 C43.36 86.7 41.82 84.39 40.31 82 C37.1 77.04 33.85 72.48 29.83 68.13 C27.44 65.35 25.35 62.37 23.25 59.38 C17.45 51.12 11.24 43.22 4.88 35.39 C3.07 33.09 1.39 30.75 -0.25 28.31 C-0.77 27.55 -1.29 26.78 -1.83 25.99 C-3 24 -3 24 -3 22 C-3.66 22 -4.32 22 -5 22 C-6.95 19.88 -6.95 19.88 -9.12 17.12 C-9.85 16.22 -10.57 15.32 -11.32 14.38 C-13 12 -13 12 -13 10 C-12.34 10 -11.68 10 -11 10 C-11 9.34 -11 8.68 -11 8 C-5.59 4 -5.59 4 -3 4 C-3 3.34 -3 2.68 -3 2 C-2.01 1.34 -1.02 0.68 0 0 Z " fill="#070B0A" transform="translate(439,391)"/>
<path d="M0 0 C2.02 0.07 4.04 0.13 6.05 0.2 C6.59 1.14 7.13 2.09 7.68 3.07 C9.93 7.02 12.3 10.9 14.69 14.77 C16.96 18.81 18.05 21.5 18.05 26.2 C19.04 26.2 20.03 26.2 21.05 26.2 C21.3 25.37 21.55 24.55 21.8 23.7 C23.24 19.67 25.08 15.98 27.05 12.2 C27.71 12.2 28.37 12.2 29.05 12.2 C29.16 11.68 29.26 11.16 29.37 10.63 C30.3 7.33 31.59 4.3 33.05 1.2 C36.07 -0.31 38.74 0.02 42.05 0.2 C44.69 2.83 44.29 4.73 44.31 8.32 C44.3 9.15 44.29 9.99 44.29 10.85 C44.28 11.71 44.28 12.57 44.28 13.45 C44.28 15.27 44.27 17.08 44.26 18.9 C44.24 21.68 44.24 24.47 44.24 27.25 C44.24 29.02 44.23 30.78 44.22 32.54 C44.22 33.38 44.22 34.21 44.22 35.07 C44.17 40.96 44.17 40.96 43.05 43.2 C41.58 43.22 40.1 43.24 38.62 43.26 C37.79 43.27 36.97 43.28 36.12 43.29 C34.05 43.2 34.05 43.2 33.05 42.2 C32.82 40.01 32.64 37.82 32.49 35.63 C32.41 34.44 32.32 33.24 32.24 32 C32.18 31.08 32.12 30.15 32.05 29.2 C31.65 29.99 31.25 30.78 30.84 31.6 C26.27 39.81 26.27 39.81 22.66 40.96 C19.44 40.94 16.95 40.64 14.05 39.2 C13.14 37.56 12.3 35.89 11.49 34.2 C10.1 30.97 10.1 30.97 8.05 28.2 C7.99 29.19 7.93 30.19 7.87 31.22 C7.79 32.51 7.7 33.8 7.62 35.13 C7.54 36.42 7.45 37.71 7.37 39.04 C7.05 42.2 7.05 42.2 6.05 43.2 C4.56 43.29 3.06 43.33 1.55 43.32 C0.74 43.32 -0.07 43.33 -0.91 43.33 C-2.95 43.2 -2.95 43.2 -3.95 42.2 C-4.06 39.26 -4.11 36.35 -4.11 33.42 C-4.12 32.54 -4.12 31.65 -4.12 30.75 C-4.13 28.88 -4.13 27.01 -4.13 25.14 C-4.13 22.27 -4.15 19.41 -4.17 16.54 C-4.17 14.73 -4.17 12.92 -4.18 11.11 C-4.18 10.24 -4.19 9.38 -4.2 8.49 C-4.17 0.42 -4.17 0.42 0 0 Z " fill="#070B0A" transform="translate(650.9453125,338.8046875)"/>
<path d="M0 0 C2.58 0.05 3.78 0.1 5.64 1.93 C6.98 4.08 8.11 6.3 9.25 8.56 C10.45 10.61 11.66 12.65 12.88 14.69 C15.16 18.58 17.27 22.51 19.25 26.56 C19.77 25.51 20.29 24.46 20.82 23.38 C31.06 2.76 31.06 2.76 33.25 0.56 C38.99 0.29 38.99 0.29 41.25 0.56 C43.89 3.2 43.49 5.1 43.5 8.68 C43.5 9.52 43.49 10.36 43.48 11.22 C43.48 12.08 43.48 12.93 43.48 13.82 C43.48 15.63 43.47 17.45 43.46 19.27 C43.44 22.05 43.44 24.84 43.44 27.62 C43.43 29.38 43.42 31.14 43.42 32.91 C43.42 33.74 43.42 34.58 43.41 35.44 C43.37 41.33 43.37 41.33 42.25 43.56 C38.95 43.56 35.65 43.56 32.25 43.56 C31.75 36.14 31.75 36.14 31.25 28.56 C29.55 31.25 29.55 31.25 27.81 34 C23.75 40.43 23.75 40.43 21.43 41.05 C18.69 41.36 16.9 41.39 14.25 40.56 C11.31 37.21 9.31 33.5 7.25 29.56 C6.92 29.23 6.59 28.9 6.25 28.56 C5.92 33.51 5.59 38.46 5.25 43.56 C-1.68 43.66 -1.68 43.66 -3.75 43.56 C-5.67 41.64 -4.88 38.78 -4.89 36.22 C-4.89 35.34 -4.88 34.45 -4.88 33.53 C-4.88 32.62 -4.88 31.72 -4.89 30.79 C-4.89 28.86 -4.88 26.94 -4.88 25.02 C-4.88 22.08 -4.88 19.13 -4.89 16.18 C-4.89 14.32 -4.88 12.45 -4.88 10.59 C-4.88 9.71 -4.89 8.82 -4.89 7.9 C-4.86 0.73 -4.86 0.73 0 0 Z " fill="#070B0A" transform="translate(589.75,338.4375)"/>
<path d="M0 0 C2.18 0.02 2.18 0.02 4.5 0.81 C8.06 4.43 10.74 8.56 13.5 12.81 C14.13 13.74 14.76 14.66 15.4 15.61 C16.79 17.67 18.15 19.73 19.5 21.81 C19.53 21.21 19.55 20.61 19.58 19.99 C19.69 17.29 19.81 14.58 19.94 11.88 C19.98 10.93 20.02 9.98 20.06 9.01 C20.1 8.11 20.14 7.21 20.18 6.29 C20.22 5.45 20.26 4.62 20.29 3.76 C20.5 1.81 20.5 1.81 21.5 0.81 C23 0.71 24.5 0.68 26 0.69 C26.81 0.68 27.63 0.68 28.47 0.68 C30.5 0.81 30.5 0.81 31.5 1.81 C31.59 4.92 31.62 8 31.6 11.1 C31.6 12.03 31.59 12.96 31.59 13.92 C31.59 16.9 31.58 19.89 31.56 22.88 C31.56 24.89 31.55 26.91 31.55 28.93 C31.54 33.89 31.52 38.85 31.5 43.81 C29.89 43.86 28.27 43.89 26.66 43.92 C25.31 43.95 25.31 43.95 23.93 43.98 C21.5 43.81 21.5 43.81 19 42.06 C15.5 36.81 15.5 36.81 15.5 32.81 C14.84 32.81 14.18 32.81 13.5 32.81 C13.5 32.15 13.5 31.49 13.5 30.81 C12.84 30.81 12.18 30.81 11.5 30.81 C10.84 28.83 10.18 26.85 9.5 24.81 C8.84 24.81 8.18 24.81 7.5 24.81 C7.5 24.15 7.5 23.49 7.5 22.81 C6.84 22.81 6.18 22.81 5.5 22.81 C5.51 23.41 5.51 24.01 5.52 24.63 C5.54 27.34 5.55 30.04 5.56 32.75 C5.57 33.7 5.58 34.64 5.59 35.62 C5.59 36.51 5.59 37.41 5.6 38.34 C5.6 39.17 5.61 40.01 5.61 40.86 C5.5 42.81 5.5 42.81 4.5 43.81 C2.69 43.95 2.69 43.95 0.5 43.94 C-0.22 43.94 -0.94 43.94 -1.69 43.95 C-3.5 43.81 -3.5 43.81 -4.5 42.81 C-4.6 39.79 -4.64 36.8 -4.63 33.78 C-4.63 32.87 -4.63 31.97 -4.64 31.04 C-4.64 29.11 -4.63 27.19 -4.63 25.27 C-4.63 22.33 -4.63 19.38 -4.64 16.43 C-4.64 14.57 -4.63 12.7 -4.63 10.84 C-4.63 9.96 -4.64 9.07 -4.64 8.15 C-4.61 1.07 -4.61 1.07 0 0 Z " fill="#070B0A" transform="translate(764.5,338.1875)"/>
<path d="M0 0 C5.31 4.44 9.32 9.08 9.95 16.22 C9.95 17.24 9.94 18.26 9.94 19.31 C9.95 20.85 9.95 20.85 9.95 22.41 C9.69 25.21 9.13 26.87 7.69 29.25 C7.03 29.25 6.37 29.25 5.69 29.25 C5.48 29.97 5.27 30.69 5.06 31.44 C2.81 36.04 -0.63 38.5 -5.25 40.56 C-12.71 42.24 -18.73 41.03 -25.31 37.25 C-30.39 32.86 -33.87 28.14 -34.49 21.31 C-34.76 13.8 -32.4 7.77 -27.31 2.25 C-18.65 -4.43 -9.49 -5.02 0 0 Z M-21.31 11.25 C-23.65 14.26 -23.73 17.53 -23.63 21.29 C-23.11 24.49 -21.66 26.09 -19.31 28.25 C-15.92 30.08 -13.14 30.8 -9.31 30.25 C-5.7 28.8 -2.99 27.27 -0.81 24 C0.11 18.94 -0.41 14.6 -3.31 10.25 C-8.9 6.72 -16.25 6.95 -21.31 11.25 Z " fill="#070B0A" transform="translate(740.3125,341.75)"/>
<path d="M0 0 C6.06 4.18 10.44 7.57 12.62 14.81 C13.69 22.27 12.49 27.41 8.62 33.81 C7.97 33.81 7.3 33.81 6.62 33.81 C6.42 34.39 6.21 34.97 6 35.56 C4 38.84 2.04 40.05 -1.38 41.81 C-7.52 43.22 -12.49 42.97 -18.38 40.81 C-19.37 40.48 -20.36 40.15 -21.38 39.81 C-21.38 39.15 -21.38 38.49 -21.38 37.81 C-22.21 37.53 -22.21 37.53 -23.06 37.25 C-27.26 34.64 -29.83 30.44 -31.38 25.81 C-31.95 19.56 -31.94 13.19 -28.38 7.81 C-20.11 -0.13 -11.37 -4 0 0 Z M-18.38 12.81 C-20.46 15.93 -20.65 16.75 -20.62 20.31 C-20.63 21.09 -20.64 21.86 -20.64 22.66 C-20.5 25.11 -20.5 25.11 -18.38 27.81 C-17.72 27.81 -17.05 27.81 -16.38 27.81 C-16.38 28.47 -16.38 29.13 -16.38 29.81 C-12.95 31.92 -10.37 32.29 -6.38 31.81 C-3.31 30.05 -0.87 28.31 1.62 25.81 C2.45 21.33 2.82 16.73 0.34 12.75 C-2.66 9.91 -5.35 8.45 -9.5 8.19 C-13.75 8.87 -15.41 9.76 -18.38 12.81 Z " fill="#070B0A" transform="translate(645.375,402.1875)"/>
<path d="M0 0 C4.47 4.84 5.82 8.84 6.19 15.38 C5.82 22.49 4 26.89 -1 32 C-6.95 36.56 -12.46 38.77 -20 38 C-25.7 36.18 -30.22 33.76 -34 29 C-34 28.01 -34 27.02 -34 26 C-34.66 26 -35.32 26 -36 26 C-39 21 -38.48 15.65 -38 10 C-35.91 3.84 -31.5 -1.44 -26 -4.88 C-16.5 -8.44 -7.77 -6.45 0 0 Z M-25 7 C-27.59 11.07 -28.7 14.2 -28 19 C-26.24 22.38 -24.94 24.46 -21.62 26.38 C-16.84 27.51 -14.13 27.63 -9.75 25.19 C-6.85 23.11 -6.85 23.11 -5 20 C-4.57 14.7 -4.49 11.27 -8 7 C-10.91 5.22 -13.11 4.73 -16.5 4.75 C-17.25 4.74 -18.01 4.74 -18.78 4.73 C-21.29 5.03 -22.87 5.65 -25 7 Z " fill="#070B0A" transform="translate(568,345)"/>
<path d="M0 0 C1.48 -0.03 2.96 -0.05 4.44 -0.06 C5.26 -0.07 6.08 -0.09 6.93 -0.1 C9 0 9 0 10 1 C10.07 3.7 10.09 6.37 10.06 9.06 C10.06 9.82 10.05 10.58 10.05 11.36 C10.04 13.24 10.02 15.12 10 17 C14.62 17 19.24 17 24 17 C23.99 15.94 23.98 14.88 23.96 13.79 C23.96 12.4 23.95 11.01 23.94 9.62 C23.93 8.93 23.92 8.23 23.91 7.51 C23.89 2.23 23.89 2.23 25 0 C26.48 -0.03 27.96 -0.05 29.44 -0.06 C30.26 -0.07 31.08 -0.09 31.93 -0.1 C34 0 34 0 35 1 C35.1 4.02 35.14 7.01 35.13 10.03 C35.13 10.94 35.13 11.84 35.14 12.78 C35.14 14.7 35.13 16.62 35.13 18.54 C35.13 21.49 35.13 24.44 35.14 27.39 C35.14 29.25 35.13 31.11 35.13 32.97 C35.13 33.86 35.14 34.75 35.14 35.66 C35.11 41.89 35.11 41.89 34 43 C32.5 43.1 31 43.13 29.5 43.12 C28.69 43.13 27.87 43.13 27.03 43.13 C25 43 25 43 24 42 C23.86 37.33 23.96 32.67 24 28 C19.38 28 14.76 28 10 28 C10.02 30.29 10.04 32.58 10.06 34.94 C10.08 37.29 10.07 39.65 10 42 C9 43 9 43 6.97 43.13 C6.15 43.13 5.34 43.13 4.5 43.12 C3.69 43.13 2.87 43.13 2.03 43.13 C0 43 0 43 -1 42 C-1.1 39.07 -1.14 36.16 -1.13 33.22 C-1.13 32.34 -1.13 31.46 -1.14 30.55 C-1.14 28.68 -1.13 26.81 -1.13 24.94 C-1.13 22.08 -1.13 19.21 -1.14 16.35 C-1.14 14.53 -1.13 12.72 -1.13 10.91 C-1.14 9.62 -1.14 9.62 -1.14 8.3 C-1.11 2.23 -1.11 2.23 0 0 Z " fill="#070B0A" transform="translate(623,276)"/>
<path d="M0 0 C1.17 0.01 2.34 0.01 3.54 0.02 C4.8 0.02 6.06 0.02 7.36 0.03 C8.7 0.03 10.04 0.04 11.38 0.05 C12.72 0.06 14.07 0.06 15.41 0.06 C18.71 0.08 22.01 0.09 25.32 0.11 C26.94 3.37 26.43 6.51 26.32 10.11 C25.32 11.11 25.32 11.11 23.55 11.23 C22.8 11.22 22.05 11.22 21.28 11.21 C20.47 11.21 19.66 11.2 18.83 11.2 C17.98 11.19 17.13 11.18 16.25 11.18 C15.4 11.17 14.55 11.17 13.67 11.16 C11.55 11.15 9.43 11.13 7.32 11.11 C7.32 12.76 7.32 14.41 7.32 16.11 C8.81 16.19 8.81 16.19 10.34 16.26 C11.63 16.34 12.92 16.41 14.25 16.49 C16.19 16.59 16.19 16.59 18.16 16.7 C19.2 16.84 20.24 16.97 21.32 17.11 C22.7 19.88 22.51 22.06 22.32 25.11 C19.64 27.79 17.92 27.5 14.19 27.74 C13.1 27.81 12 27.89 10.87 27.97 C9.61 28.04 9.61 28.04 8.32 28.11 C7.99 29.76 7.66 31.41 7.32 33.11 C8.44 33.09 9.56 33.07 10.71 33.04 C12.18 33.02 13.66 33.01 15.13 32.99 C15.87 32.97 16.6 32.96 17.36 32.94 C21.23 32.9 23.03 32.92 26.32 35.11 C26.57 38.68 26.57 38.68 26.32 42.11 C25.32 43.11 25.32 43.11 22.54 43.23 C21.33 43.22 20.12 43.22 18.87 43.21 C17.57 43.21 16.26 43.2 14.92 43.2 C13.53 43.19 12.14 43.18 10.75 43.18 C9.36 43.17 7.97 43.17 6.58 43.16 C3.16 43.15 -0.26 43.13 -3.68 43.11 C-3.71 37.15 -3.73 31.19 -3.74 25.22 C-3.74 23.19 -3.75 21.16 -3.76 19.13 C-3.77 16.22 -3.78 13.31 -3.78 10.4 C-3.79 9.49 -3.79 8.57 -3.8 7.63 C-3.8 5.46 -3.75 3.29 -3.68 1.11 C-2.68 0.11 -2.68 0.11 0 0 Z " fill="#070B0A" transform="translate(677.683837890625,275.886474609375)"/>
<path d="M0 0 C8.91 0 17.82 0 27 0 C28.49 2.98 28.12 5.72 28 9 C27 10 27 10 23.18 10.1 C21.6 10.09 20.02 10.08 18.44 10.06 C17.63 10.06 16.82 10.05 15.99 10.05 C14 10.04 12 10.02 10 10 C10 11.98 10 13.96 10 16 C10.85 15.99 11.71 15.98 12.59 15.96 C13.69 15.96 14.8 15.95 15.94 15.94 C17.04 15.93 18.14 15.91 19.28 15.9 C22 16 22 16 23 17 C23.1 18.5 23.13 20 23.12 21.5 C23.13 22.72 23.13 22.72 23.13 23.97 C23 26 23 26 22 27 C19.98 27.07 17.96 27.08 15.94 27.06 C14.28 27.05 14.28 27.05 12.59 27.04 C11.74 27.02 10.88 27.01 10 27 C10 28.98 10 30.96 10 33 C11.82 32.98 11.82 32.98 13.68 32.96 C15.27 32.96 16.85 32.95 18.44 32.94 C19.24 32.93 20.04 32.92 20.87 32.91 C22.91 32.9 24.96 32.95 27 33 C28 34 28 34 28.13 35.81 C28.13 36.53 28.13 37.26 28.12 38 C28.13 39.08 28.13 39.08 28.13 40.19 C28 42 28 42 27 43 C25.01 43.1 23.02 43.13 21.03 43.13 C19.82 43.13 18.61 43.14 17.36 43.14 C16.09 43.13 14.81 43.13 13.5 43.12 C12.23 43.13 10.95 43.13 9.64 43.14 C7.82 43.13 7.82 43.13 5.97 43.13 C4.85 43.13 3.73 43.13 2.58 43.13 C0 43 0 43 -1 42 C-1.1 39.07 -1.14 36.16 -1.13 33.22 C-1.13 32.34 -1.13 31.46 -1.14 30.55 C-1.14 28.68 -1.13 26.81 -1.13 24.94 C-1.13 22.08 -1.13 19.21 -1.14 16.35 C-1.14 14.53 -1.13 12.72 -1.13 10.91 C-1.14 9.62 -1.14 9.62 -1.14 8.3 C-1.11 2.23 -1.11 2.23 0 0 Z " fill="#070B0A" transform="translate(721,401)"/>
<path d="M0 0 C1.24 0.02 1.24 0.02 2.5 0.04 C3.32 0.04 4.15 0.05 5 0.06 C5.64 0.07 6.28 0.09 6.93 0.1 C9.43 5.63 11.33 11.23 13.12 17.04 C13.39 17.91 13.67 18.78 13.95 19.69 C14.61 21.82 15.27 23.96 15.93 26.1 C16.17 25.38 16.41 24.66 16.65 23.93 C17.72 20.69 18.8 17.46 19.87 14.22 C20.24 13.09 20.62 11.97 21 10.8 C21.36 9.73 21.72 8.65 22.09 7.54 C22.42 6.55 22.75 5.55 23.09 4.53 C23.93 2.1 23.93 2.1 24.93 0.1 C26.41 0.07 27.89 0.05 29.37 0.04 C30.19 0.02 31.02 0.01 31.87 0 C33.93 0.1 33.93 0.1 34.93 1.1 C35.3 5.74 34.79 8.9 32.79 13.09 C31.75 15.52 31.1 17.97 30.43 20.54 C29.39 24.5 28.19 28.29 26.7 32.11 C25.31 35.73 24.14 39.42 22.93 43.1 C18.31 43.1 13.69 43.1 8.93 43.1 C6.58 37.43 4.47 31.84 2.79 25.94 C1.34 21.14 -0.39 16.43 -2.08 11.71 C-3.1 7.99 -3.32 4.94 -3.07 1.1 C-2.07 0.1 -2.07 0.1 0 0 Z " fill="#070B0A" transform="translate(671.06640625,400.90234375)"/>
<path d="M0 0 C-0.36 2.68 -0.74 4.61 -2.25 6.88 C-4.75 8.48 -6.14 7.6 -9 7 C-10.87 6.91 -12.75 6.87 -14.62 6.88 C-16.04 6.87 -16.04 6.87 -17.48 6.87 C-20.13 6.89 -20.13 6.89 -23 8 C-24.79 12.06 -25.47 15.59 -25 20 C-23.72 22.81 -22.69 24.5 -20.19 26.31 C-14.79 28.01 -10.19 26.66 -5 25 C-0.06 29.34 -0.06 29.34 0.19 32.06 C-1.91 35.48 -5.21 37.28 -8.88 38.75 C-17.76 39.8 -22.68 37.88 -30 33 C-30 32.34 -30 31.68 -30 31 C-30.66 31 -31.32 31 -32 31 C-36.53 25.92 -37.12 20.69 -37 14 C-36.47 10.76 -35.47 7.94 -34 5 C-33.34 5 -32.68 5 -32 5 C-31.76 4.41 -31.52 3.81 -31.27 3.2 C-29.75 0.56 -28.22 -0.53 -25.69 -2.19 C-24.93 -2.7 -24.17 -3.21 -23.39 -3.73 C-15.42 -7.97 -6.73 -5.31 0 0 Z " fill="#070B0A" transform="translate(520,344)"/>
<path d="M0 0 C0.66 0.66 1.32 1.32 2 2 C1.62 4.62 1.62 4.62 1 7 C0.34 7 -0.32 7 -1 7 C-1 7.66 -1 8.32 -1 9 C-3.17 8.49 -5 8 -7 7 C-9.33 6.96 -11.67 6.96 -14 7 C-14.33 8.98 -14.66 10.96 -15 13 C-14.41 13.19 -13.82 13.39 -13.21 13.59 C-11.57 14.12 -9.94 14.67 -8.31 15.23 C-6.66 15.78 -4.99 16.28 -3.31 16.75 C0.35 18.73 2.84 21.45 5 25 C5.78 29.44 5.38 31.32 3.19 35.25 C-1.46 41.09 -1.46 41.09 -6 42 C-13.68 42.67 -19.03 41.75 -25.44 37.31 C-25.95 36.88 -26.47 36.45 -27 36 C-26.4 32.64 -25.15 30.62 -23 28 C-20.84 28.46 -19.09 28.95 -17.16 30.03 C-14.67 31.15 -12.96 31.2 -10.25 31.12 C-9.45 31.11 -8.65 31.09 -7.83 31.07 C-7.22 31.05 -6.62 31.02 -6 31 C-6.06 29.03 -6.06 29.03 -7 27 C-9.58 25.88 -9.58 25.88 -12.69 25.19 C-18.55 23.41 -22.01 21.42 -25 16 C-26.51 11.39 -25.92 8.41 -24 4 C-22.5 1.62 -22.5 1.62 -21 0 C-20.34 0 -19.68 0 -19 0 C-19 -0.66 -19 -1.32 -19 -2 C-11.81 -3.74 -6.52 -3.32 0 0 Z " fill="#070B0A" transform="translate(557,403)"/>
<path d="M0 0 C3.04 -0.37 3.04 -0.37 6.91 -0.36 C7.59 -0.36 8.27 -0.36 8.97 -0.36 C10.41 -0.36 11.85 -0.35 13.29 -0.34 C15.49 -0.31 17.7 -0.32 19.9 -0.32 C30.72 -0.28 30.72 -0.28 33 2 C33.33 4.71 33.13 7.25 33 10 C32 11 32 11 29.5 11.1 C27.98 11.08 27.98 11.08 26.44 11.06 C25.43 11.05 24.41 11.04 23.37 11.04 C22.2 11.02 22.2 11.02 21 11 C21.01 12.4 21.01 12.4 21.02 13.83 C21.03 17.28 21.05 20.74 21.05 24.19 C21.06 25.69 21.07 27.18 21.08 28.68 C21.09 30.83 21.09 32.97 21.1 35.12 C21.11 37.06 21.11 37.06 21.11 39.04 C21 42 21 42 20 43 C18.5 43.1 17 43.13 15.5 43.12 C14.69 43.13 13.87 43.13 13.03 43.13 C11 43 11 43 10 42 C9.91 39.71 9.89 37.41 9.9 35.12 C9.9 34.43 9.91 33.75 9.91 33.04 C9.91 30.84 9.92 28.64 9.94 26.44 C9.94 24.95 9.95 23.46 9.95 21.97 C9.96 18.31 9.98 14.66 10 11 C6.37 11 2.74 11 -1 11 C-2.39 8.23 -2.19 6.07 -2 3 C-1.34 2.01 -0.68 1.02 0 0 Z " fill="#070B0A" transform="translate(576,276)"/>
<path d="M0 0 C4.38 -0.05 8.76 -0.09 13.13 -0.11 C14.62 -0.12 16.11 -0.13 17.6 -0.15 C19.74 -0.18 21.88 -0.19 24.02 -0.2 C25.31 -0.21 26.6 -0.22 27.93 -0.23 C31 0 31 0 33 2 C33.19 5.56 33.19 5.56 33 9 C30.36 11.64 25.71 10.63 22 11 C21.67 21.56 21.34 32.12 21 43 C17.7 43 14.4 43 11 43 C10 42 10 42 9.89 38.95 C9.89 37.6 9.89 36.25 9.9 34.9 C9.9 34.19 9.91 33.48 9.91 32.75 C9.91 30.48 9.92 28.21 9.94 25.94 C9.94 24.4 9.95 22.86 9.95 21.33 C9.96 17.55 9.98 13.78 10 10 C9.29 10.01 8.58 10.02 7.85 10.04 C6.93 10.04 6.01 10.05 5.06 10.06 C4.15 10.07 3.23 10.09 2.29 10.1 C0 10 0 10 -1 9 C-1.24 2.47 -1.24 2.47 0 0 Z " fill="#070B0A" transform="translate(573,401)"/>
</svg>
